<svg xmlns="http://www.w3.org/2000/svg" width="438.621" height="319.77" viewBox="0 0 438.621 319.77"><defs><style>.a,.bp{fill:#fdfeff;}.a,.aa,.ab,.ac,.ad,.ae,.af,.ag,.ah,.ai,.aj,.ak,.al,.am,.an,.ao,.ap,.aq,.ar,.as,.at,.au,.av,.aw,.ax,.ay,.az,.b,.ba,.bb,.bc,.bd,.be,.bf,.bg,.bh,.bi,.bj,.bk,.bl,.bm,.bn,.bo,.bq,.br,.bs,.bt,.c,.e,.n,.o,.r,.s,.t,.u,.v,.w,.x,.y,.z{fill-rule:evenodd;}.b{fill:#eed5c6;}.c{fill:#e3c0ab;}.d,.e{fill:#c49e86;}.f{fill:#957e63;}.g{fill:#cfbaa0;}.h{fill:#895a2c;}.i{fill:#4d3b29;}.j{fill:#070404;}.k{fill:#36200f;}.l{fill:#261c12;}.m{fill:#af9a7f;}.n{fill:#373720;}.o{fill:#663f3f;}.p,.w{fill:#edac70;}.q,.x{fill:#ac6327;}.r{fill:#883c3d;}.s{fill:#4b1f1f;}.t{fill:#e1b5b5;}.u{fill:#201f11;}.v{fill:#8c4c4d;}.y{fill:#9d5c5d;}.z{fill:#6b2d2d;}.aa{fill:#262613;}.ab{fill:#a14646;}.ac{fill:#712f30;}.ad{fill:#c46f6f;}.ae{fill:#d18944;}.af{fill:#b56928;}.ag{fill:#813b1b;}.ah{fill:#5a2726;}.ai{fill:#e39e5c;}.aj{fill:#010101;}.ak{fill:#ba8d8e;}.al{fill:#8a5a59;}.am{fill:#030303;}.an{fill:#311717;}.ao{fill:#8a3434;}.ap{fill:#f6c695;}.aq{fill:#fac48f;}.ar{fill:#facba0;}.as{fill:#3a1411;}.at{fill:#f7f8f8;}.au{fill:#b15d27;}.av{fill:#f9e2cc;}.aw{fill:#d58342;}.ax{fill:#efa76c;}.ay{fill:#6f2f2f;}.az{fill:#f9c28c;}.ba{fill:#662b10;}.bb{fill:#662c2b;}.bc{fill:#411918;}.bd{fill:#9b4848;}.be{fill:#faf7c6;}.bf{fill:#e6b378;}.bg,.bv{fill:#cf9d60;}.bh{fill:#aa6e2f;}.bi{fill:#975b25;}.bj,.bw{fill:#bd8246;}.bk{fill:#a56b2d;}.bl{fill:#f2c58e;}.bm{fill:#be6565;}.bn{fill:#fcd8b6;}.bo{fill:#020202;}.bq{fill:#f9c99e;}.br{fill:#ba9594;}.bs{fill:#c4c4c4;}.bt{fill:#c48d2c;}.bu{fill:#311f10;}.bx{fill:#a1662b;}.by{fill:#b67f3b;}.bz{fill:#e3debc;}.ca{fill:#8d875a;}</style></defs><g transform="translate(-406.8 -223.6)"><path class="a" d="M1641.957,360.2a42.558,42.558,0,1,1-42.557,42.557,42.555,42.555,0,0,1,42.557-42.557" transform="translate(-849.899 -97.347)"/><path class="b" d="M1082.045,333.951h-21.351v7.615h21.351Zm64.569,45.948V375.56H1141.5V379.9Zm2.615-4.339V379.9h2.759V375.56Zm57.443,56.408v16.207h10.546V431.968Zm0-17.644v3.218h10.546v-3.218Zm36.523-37.126v5.2h2.96v-5.2Zm-5.575,0v5.2h3.132v-5.2Zm-5.4,0v5.2h2.96v-5.2Zm-5.46,0v5.2h3.046v-5.2Zm-5.4,0v5.2h2.96v-5.2Zm21.264-9.109h-22.471V373.2h22.471Zm-44.052-2.27h-23.994v7.615h23.994Zm-142.155-24.253h2.7v-7.615h-1.178v-2.874h26.839v2.874h-1.121v7.615h3.161v80.6h7.241V354.64h16.149V339.066h6.264V354.64h4.828V337.255h5.057V330.1h5.374v7.155h5.115V354.64h4.713v15.2h8.42v-6.034h-4.4V362.6h4.339v-2.845h-4.339v-1.207h4.339V357.14h2.155v1.408h4.2v1.207h-4.2V362.6h4.2v1.207h-4.2v6.034h4.684v5.747H1154.6v4.339h2.73V402.2h9.914V373.491h4.6v-7.615h-3.419v-4.914H1204v4.914h-2.759v7.615h5.4V412.4h10.546V382.428h1.724V377.2H1212.3v-4.023h6.581V368.06H1216.7V364.5h29.483v3.563h-2.327v5.115h8.937V377.2h-4.2v5.2h.833v59.54h6.149v-57.3h4.943V374.267h-4.684v-1.954h4.684v-2.874h-4.684v-1.954h4.684v-2.672h-4.684v-1.954h4.684v-1.236h3.42v1.236h4.626v1.954h-4.626v2.672h4.626v1.954h-4.626v2.874h4.626v1.954h-4.626V384.64h5.776v49.052h5.948V352.083h15.086v95.575a22.618,22.618,0,0,1-21.034,22.615H1249.4v.057h-32.213V455.387h-10.546V470.33H1056.384V470.3h-3.649a22.638,22.638,0,0,1-21.034-22.615v-95.6h15.086v81.638h5.948V384.64h3.649V374.267h-2.471v-1.954h2.471v-2.874h-2.471v-1.954h2.471v-2.672h-2.471v-1.954h2.471V341.566Z" transform="translate(-445.331 -75.897)"/><path class="c" d="M1295.555,533.563h19.655v7.012h-19.655Zm-59.454,42.3v-3.994h4.713v3.994Zm-2.414-3.994v3.994h-2.529v-3.994Zm-52.874,51.925v14.943H1171.1V623.793Zm0-16.236v2.96H1171.1v-2.96Zm-33.621-34.167v4.8h-2.7v-4.8Zm5.115,0v4.8h-2.9v-4.8Zm4.971,0v4.8h-2.7v-4.8Zm5.029,0v4.8h-2.816v-4.8Zm4.971,0v4.8h-2.7v-4.8Zm-19.569-8.42h20.69v4.713h-20.69Zm40.546-2.069h22.1v7.012h-22.1Zm130.862-22.328h-2.471v-7.012h1.092V530.92h-24.684v2.644h1.035v7.012h-2.9v74.2h-6.667V552.586h-14.856V538.247h-5.776v14.339h-4.426V536.609h-4.655V530h-4.943v6.609h-4.713v16.006h-4.339v13.994h-7.759v-5.575h3.994v-1.092h-3.994v-2.615h3.994v-1.092h-3.994v-1.293h-1.983v1.293h-3.851v1.092h3.851v2.615h-3.851v1.092h3.851v5.546h-4.31v5.287h1.983v3.994h-2.529v20.488h-9.109V569.914h-4.224V562.9h3.132v-4.511h-32.759V562.9h2.529v7.012h-4.971v35.833H1171.1V578.19h-1.581v-4.8h6.092v-3.707h-6.063v-4.713h2.011V561.7h-27.126v3.276h2.155v4.713h-8.247v3.707h3.879v4.8h-.776v54.828h-5.661V580.23h-4.54v-9.569h4.31v-1.81h-4.31v-2.644h4.31V564.4h-4.31v-2.471h4.31v-1.753h-4.31v-1.15h-3.161v1.121h-4.253v1.81h4.253v2.471h-4.253v1.81h4.253v2.644h-4.253v1.81h4.253v9.569h-5.316V625.4h-5.46V550.259H1103.4v87.988a20.871,20.871,0,0,0,19.368,20.833h18.678v.057H1171.1V645.374h9.684v13.764h138.3v-.057h3.362a20.85,20.85,0,0,0,19.368-20.833V550.259h-13.908V625.4h-5.46V580.23h-3.362v-9.569h2.3v-1.81h-2.3v-2.644h2.3V564.4h-2.3v-2.471h2.3v-1.753h-2.3v-19.6Z" transform="translate(-496.428 -218.354)"/><rect class="d" width="18.362" height="6.552" transform="translate(647.547 330.468)"/><rect class="d" width="4.397" height="3.736" transform="translate(717.059 366.244)"/><rect class="d" width="2.356" height="3.736" transform="translate(723.697 366.244)"/><rect class="d" width="9.052" height="13.937" transform="translate(773.093 414.75)"/><rect class="d" width="9.052" height="2.787" transform="translate(773.093 399.606)"/><rect class="d" width="2.529" height="4.483" transform="translate(804.53 367.652)"/><rect class="d" width="2.701" height="4.483" transform="translate(799.731 367.652)"/><rect class="d" width="2.529" height="4.483" transform="translate(795.076 367.652)"/><rect class="d" width="2.615" height="4.483" transform="translate(790.363 367.652)"/><rect class="d" width="2.529" height="4.483" transform="translate(785.737 367.652)"/><rect class="d" width="19.339" height="4.397" transform="translate(784.674 359.807)"/><rect class="d" width="20.661" height="6.552" transform="translate(745.478 357.882)"/><path class="e" d="M1748.1,345.522c-4.454-2.644-6.7-3.965-6.7-3.965l7.471,6.782c1.322-6.092,2.011-9.138,2.011-9.138-1.868,4.224-2.787,6.322-2.787,6.322" transform="translate(-951.094 -82.382)"/><path class="e" d="M1179.207,593.856h2.328V587.3H1180.5v-2.471h23.075V587.3h-.977v6.552h2.7v69.31h6.236V605.092h13.879V591.7h5.4v13.391h4.138V590.149h4.339V584h4.626v6.149h4.4v14.943h4.052v13.075h7.241v-5.2h-3.736v-1.035h3.736v-2.443h-3.736v-1.034h3.736v-1.207h1.868v1.207h3.621v1.034h-3.621v2.443h3.621v1.035h-3.621v5.2h4.023v4.914h-1.839v3.736h2.356v19.138h8.506V621.27h3.965v-6.552h-2.931v-4.224h30.6v4.224h-2.385v6.552h4.626v33.477h9.052V629h1.494v-4.483h-5.69v-3.448h5.661v-4.4h-1.868V613.6H1342.4v3.075h-2.012v4.4h7.672v3.448h-3.563V629h.718v51.207h5.287V630.9h4.253V621.96h-4.023v-1.7h4.023v-2.471h-4.023v-1.7h4.023v-2.3h-4.023v-1.638h4.023V611.1h2.931v1.063h3.994v1.7h-3.994v2.3h3.994v1.7h-3.994v2.471h3.994v1.7h-3.994v8.937h4.971v42.127h5.115v-70.2h12.989v82.213a19.493,19.493,0,0,1-18.1,19.454h-17.443v.058h-27.7V691.759h-9.052V704.6H1179.236v-.058H1176.1a19.493,19.493,0,0,1-18.1-19.454V602.879h12.988v70.2h5.115V630.9h3.132V621.96h-2.126v-1.7h2.126v-2.471h-2.126v-1.7h2.126v-2.3h-2.126v-1.638h2.126v-18.3Z" transform="translate(-535.338 -256.837)"/><rect class="f" width="232.759" height="11.897" transform="translate(612.662 397.25)"/><rect class="g" width="232.759" height="93.563" transform="translate(612.662 407.508)"/><rect class="h" width="217.586" height="282.27" transform="translate(406.8 223.6)"/><rect class="i" width="438.621" height="49.741" transform="translate(406.8 493.629)"/><rect class="j" width="194.167" height="231.293" transform="translate(418.524 234.721)"/><rect class="h" width="211.351" height="15.977" transform="translate(409.932 365.123)"/><rect class="k" width="98.908" height="10.431" transform="translate(463.38 476.301)"/><rect class="l" width="438.621" height="24.885" transform="translate(406.8 518.485)"/><rect class="m" width="32.5" height="9.425" transform="translate(806.685 413.629)"/><rect class="m" width="32.5" height="9.425" transform="translate(769.817 413.629)"/><rect class="m" width="32.5" height="9.425" transform="translate(732.375 413.629)"/><rect class="m" width="32.5" height="9.425" transform="translate(695.536 413.629)"/><rect class="m" width="32.5" height="9.425" transform="translate(659.214 413.629)"/><rect class="m" width="26.379" height="9.425" transform="translate(628.495 413.629)"/><rect class="m" width="32.5" height="9.425" transform="translate(792.633 427.106)"/><rect class="m" width="32.5" height="9.425" transform="translate(755.794 427.106)"/><rect class="m" width="32.5" height="9.425" transform="translate(718.352 427.106)"/><rect class="m" width="32.5" height="9.425" transform="translate(681.484 427.106)"/><rect class="m" width="32.5" height="9.425" transform="translate(645.162 427.106)"/><rect class="m" width="11.897" height="9.425" transform="translate(628.955 427.106)"/><rect class="m" width="10.718" height="9.425" transform="translate(828.151 427.106)"/><rect class="m" width="32.5" height="9.425" transform="translate(806.685 440.037)"/><rect class="m" width="32.5" height="9.425" transform="translate(769.817 440.037)"/><rect class="m" width="32.5" height="9.425" transform="translate(732.375 440.037)"/><rect class="m" width="32.5" height="9.425" transform="translate(695.536 440.037)"/><rect class="m" width="32.5" height="9.425" transform="translate(659.214 440.037)"/><rect class="m" width="26.379" height="9.425" transform="translate(628.495 440.037)"/><rect class="m" width="32.5" height="9.425" transform="translate(792.633 453.514)"/><rect class="m" width="32.5" height="9.425" transform="translate(755.794 453.514)"/><rect class="m" width="32.5" height="9.425" transform="translate(718.352 453.514)"/><rect class="m" width="32.5" height="9.425" transform="translate(681.484 453.514)"/><rect class="m" width="32.5" height="9.425" transform="translate(645.162 453.514)"/><rect class="m" width="11.897" height="9.425" transform="translate(628.955 453.514)"/><rect class="m" width="10.718" height="9.425" transform="translate(828.151 453.514)"/><rect class="m" width="32.5" height="9.425" transform="translate(806.685 466.129)"/><rect class="m" width="32.5" height="9.425" transform="translate(769.817 466.129)"/><rect class="m" width="32.5" height="9.425" transform="translate(732.375 466.129)"/><rect class="m" width="32.5" height="9.425" transform="translate(695.536 466.129)"/><rect class="m" width="32.5" height="9.425" transform="translate(659.214 466.129)"/><rect class="m" width="26.379" height="9.425" transform="translate(628.495 466.129)"/><rect class="m" width="32.5" height="9.425" transform="translate(792.633 479.606)"/><rect class="m" width="32.5" height="9.425" transform="translate(755.794 479.606)"/><rect class="m" width="32.5" height="9.425" transform="translate(718.352 479.606)"/><rect class="m" width="32.5" height="9.425" transform="translate(681.484 479.606)"/><rect class="m" width="32.5" height="9.425" transform="translate(645.162 479.606)"/><rect class="m" width="11.897" height="9.425" transform="translate(628.955 479.606)"/><rect class="m" width="10.718" height="9.425" transform="translate(828.151 479.606)"/><path class="n" d="M1214.781,755.07h2.989a.136.136,0,0,1,.144.144v25.144a.136.136,0,0,1-.144.144h-2.989a.136.136,0,0,1-.144-.144V755.213a.136.136,0,0,1,.144-.144m-23.534-42.845,52.931-18.276a3.425,3.425,0,0,1,4.31,2.1l10.6,30.747a3.425,3.425,0,0,1-2.1,4.31l-52.931,18.276a3.425,3.425,0,0,1-4.31-2.1l-10.6-30.747A3.413,3.413,0,0,1,1191.247,712.225Z" transform="translate(-557.406 -335.061)"/><path class="o" d="M1185.486,623.38l40.69-14.425a4.4,4.4,0,0,1,5.661,2.759l22.672,67.529a4.594,4.594,0,0,1-2.787,5.747l-40.69,14.425a4.4,4.4,0,0,1-5.661-2.759L1182.7,629.127a4.57,4.57,0,0,1,2.787-5.747" transform="translate(-552.766 -274.435)"/><rect class="p" width="13.391" height="11.897" transform="translate(721.052 499.624) rotate(-88.553)"/><rect class="q" width="13.391" height="5.69" transform="matrix(0.025, -1, 1, 0.025, 722.388, 499.658)"/><path class="r" d="M1401.476,928.125c2.96,1.379,9.368,1.121,13.1-2.069,0,0,4.569-22.241,7.586-44.77.632-4.885-2.213-9.023-7.7-14.6,0,0-9.454-8.736-27.069-26.351a16.6,16.6,0,0,0-24.713,14.971q34.4,21.422,34.425,21.408c5.747,3.218,9.311,5.489,9.109,7.644-1.638,21.954-4.741,43.764-4.741,43.764" transform="translate(-681.199 -438.002)"/><path class="s" d="M1395.54,880.9c-3.965,2.9-2.213,6.839-.488,9.109q25.388,15.517,25.4,15.546c8.075,4.741,9.8,6.925,9.339,10.115q-4.569,41.293-4.569,41.264c2.155-3.563,3.247-5.345,3.247-5.345q5.991-36.81,6.006-36.81c.431-4.282-2.5-7.874-10.661-13.937-16.379-11.494-30.172-18.362-28.276-19.943" transform="translate(-702.906 -468.421)"/><path class="t" d="M1484.567,916.393q-3.707,43.448-3.736,43.448s2.27-14.4,6.782-43.161a10.759,10.759,0,0,0-2.3-8.161q-20.9-20.905-20.891-20.919c-4.368,1.465-6.523,2.213-6.523,2.213q24.44,20.259,24.454,20.259a9.8,9.8,0,0,1,2.213,6.322" transform="translate(-749.06 -473.195)"/><path class="u" d="M1531.306,1148.243q-33.836,13.19-33.85,13.218c-3.1-7.7-4.655-11.523-4.655-11.523.661-.546.977-.833.977-.833a7.606,7.606,0,0,0,12.529-2.443,3.464,3.464,0,0,1,1.7-3.218,3.42,3.42,0,0,1,3.65.115c2.9.977,4.368,1.437,4.368,1.437,4.914-1.925,7.385-2.874,7.385-2.874a5.587,5.587,0,0,1,7.9,6.121" transform="translate(-773.931 -654.183)"/><path class="a" d="M1506.908,1174.437l34.08-13.535a.626.626,0,0,1,.8.345l1.149,2.931a.626.626,0,0,1-.345.8l-34.08,13.535a.626.626,0,0,1-.8-.345l-1.15-2.931a.582.582,0,0,1,.345-.8" transform="translate(-783.699 -667.935)"/><path class="v" d="M1558.722,1149.629a1.97,1.97,0,0,1,1.638.287,4.7,4.7,0,0,0-5.288-3.649s-3.908,1.609-11.7,4.8c-3.908-1.063-5.833-1.581-5.833-1.581a6.993,6.993,0,0,1-2.644,4.454l8.621,1.81c10.115-4.081,15.2-6.121,15.2-6.121" transform="translate(-803.933 -657.494)"/><path class="w" d="M1297.31,1188.2h11.9l-1.81,13.391h-11.9Z" transform="translate(-633.326 -687.416)"/><path class="x" d="M1301.91,1188.2h5.69l-1.81,13.391h-5.69Z" transform="translate(-636.604 -687.416)"/><path class="y" d="M1300.853,868.564c3.189,22.3,4.138,34.54,4.138,34.54.517,4.77.057,5.891-.2,10.546,0,0-3.19,21.9-5.69,45.029,3.448,2.27,10.086,2.069,13.621-.029,0,0,4.828-19.914,9.971-39.77.431-1.81.891-3.764,1.667-7.529,0,0,3.247-18.534,6.782-49.943-9.023-1.638-23.017.546-30.287,7.155" transform="translate(-635.892 -454.159)"/><path class="z" d="M1308.5,970.585c2.27.6,3.42.919,3.42.919s3.046-14.425,9.167-43.276a38.5,38.5,0,0,0,1.351-10.4s-.489-12.385-1.494-37.126c-7.328,1.954-10.489,2.1-10.489,2.1,1.437,10.172,2.471,20.862,3.592,33.075a55.678,55.678,0,0,1,.172,8.764q-5.689,45.948-5.718,45.948" transform="translate(-642.591 -468.278)"/><path class="t" d="M1344.971,936.494q-7.457,37.457-7.471,37.471s3.333-12.385,10.029-37.184c.8-3.621,1.437-6.9,1.9-9.856T1355.517,885c-3.937,6.408-5.891,9.6-5.891,9.6q-3.06,31.595-3.046,31.609c-.517,3.621-1.034,7.04-1.609,10.287" transform="translate(-663.257 -471.342)"/><path class="u" d="M1291.6,1230.978q14.655,3.966,16.58,0a8.981,8.981,0,1,0-16.58,0" transform="translate(-630.061 -709.045)"/><path class="a" d="M1291.233,1261.8h16.581a.834.834,0,0,1,.833.833v2.816a.834.834,0,0,1-.833.833h-16.581a.834.834,0,0,1-.833-.833v-2.816a.834.834,0,0,1,.833-.833" transform="translate(-629.692 -739.867)"/><path class="v" d="M1327.684,1228.748c1.552,2.27,1.379,5.086-.4,6.293s-4.454.344-6.006-1.954c-1.552-2.27-1.379-5.086.4-6.293,1.753-1.178,4.454-.316,6.006,1.954" transform="translate(-650.941 -714.544)"/><path class="aa" d="M1412.7,851.639c13.1-1.638,20.8.144,23.075,5.287,0,0-4.511.6-13.534,1.839,0,0-3.19-2.356-9.54-7.126" transform="translate(-716.848 -447.148)"/><path class="ab" d="M1207.4,706.81a71.54,71.54,0,0,0,19.2,4.8s1.322-6.552,3.937-19.655a10.093,10.093,0,1,0-18.736-7.5q-4.4,22.371-4.4,22.356" transform="translate(-570.542 -323.756)"/><path class="ac" d="M1246.245,693.18c-2.529,10.8-4.224,19.971-4.224,19.971s-3.851-10.029-11.121-25.029c.4-3.017,1.264-5.2,2.586-6.523q12.758,11.595,12.759,11.581" transform="translate(-587.29 -326.391)"/><path class="ad" d="M1221.162,720.459a11.751,11.751,0,0,0,5.69,12.3s-3.851-.977-11.552-2.9t3.046-14.655c1.9,3.506,2.816,5.259,2.816,5.259" transform="translate(-576.172 -350.336)"/><path class="ab" d="M1318.151,673.6q-8.06,19.138-8.075,19.138s-4.425-10-13.276-30.029a11.624,11.624,0,0,1,6.782-7.471,11.474,11.474,0,0,1,10.057.718c5.46,6.983,6.954,12.845,4.511,17.644" transform="translate(-634.253 -307.007)"/><path class="a" d="M1281.192,619.432a11.912,11.912,0,0,1-18.966,10.115c-1.408,1.092-2.126,1.638-2.126,1.638a13.211,13.211,0,0,0,23.1-12.385c-1.35.431-2.011.632-2.011.632" transform="translate(-608.099 -281.637)"/><path class="ae" d="M1280.187,621.718c-4.77,3.506-8.161,5.057-10.172,4.713l1.121,1.81s-1.236.948-3.735,2.874A10.956,10.956,0,0,0,1286.394,621c-4.138.489-6.207.718-6.207.718" transform="translate(-613.301 -283.205)"/><path class="af" d="M1285.784,624.291a6.189,6.189,0,0,1-3.592,4.023,6.1,6.1,0,0,1-5.374-.373s.546.747,1.638,2.213c0,0-.776.661-2.356,1.925,3.132,1.868,7.931,2.328,11.092.546,3.19-1.782,4.253-5.575,4.281-9.224-3.793.6-5.69.891-5.69.891" transform="translate(-619.501 -284.915)"/><path class="ag" d="M1282.3,631.094a38.51,38.51,0,0,1,9.942-3.994c1.983,6.494-3.19,8.937-9.942,3.994" transform="translate(-623.92 -287.552)"/><path class="aa" d="M1238.169,467.668c-5.948-.374-12.155,2.5-18.678,8.649-2.27-6.264-3.276-12.27-1.954-14.109a12.788,12.788,0,0,1,14.109-4.713c1.667.546,5.086,6.609,6.523,10.172" transform="translate(-577.346 -166.28)"/><path class="ah" d="M1299.1,500.882a4.71,4.71,0,0,1,4.914,4.224,6.176,6.176,0,0,1,6.954-1.9q1.207-3.534-1.81-3.793a24.472,24.472,0,0,0-10.057,1.466" transform="translate(-635.892 -196.535)"/><path class="ai" d="M1215.441,518.056q-.776-11.509,23.649-17.356,7.931,2.155,6.121,11.121a4.124,4.124,0,0,0,1.466,4.512c4.4,3.276,4.6,9.138.6,17.529a5.443,5.443,0,0,0-.833,2.328c.057,2.471-1.121,4.109-3.851,4.54-14.856,2.184-20.632-1.868-27.155-22.672" transform="translate(-576.256 -197.473)"/><path class="af" d="M1249.12,499.6q-33.664,2.069-19.368,31.437,5.431,8.793,14.8,7.586s-4.167-8.851-12.471-26.523q-.043,0,17.04-12.5" transform="translate(-583.441 -196.69)"/><path class="aj" d="M1220.406,526.434c-4.425,4.454-4.454,10.46-.115,18.1a22.168,22.168,0,0,0,3.535,6.81,4.092,4.092,0,0,0,1.063-2.558c-1.983-4.6-4.512-8.1-1.724-10.661,2.529-2.385,1.868-6.006-.718-6.782-1.408-.374-.718-2.27,1.868-4.943a4.082,4.082,0,0,0-3.908.029" transform="translate(-577.428 -215.449)"/><path class="ak" d="M1195.889,496.552c3.535,4.77,5.92,6.178,6.063,3.994.259-2.27,1.667-5,4.253-8.247t-4.512-14.8c-6.035,11.006-7.673,16.494-5.8,19.052" transform="translate(-561.818 -180.94)"/><path class="ai" d="M1205.46,557.152c2.931,5.115,5.259,8.851,2.213,11.149-.948.718-2.96-.144-5.718-2.3a7.046,7.046,0,0,1-2.586-6.724c.431-4.655,3.994-5.747,6.092-2.126" transform="translate(-564.781 -236.167)"/><path class="al" d="M1214.07,483.2c2.443,8.017,3.649,12.011,3.649,12.011-2.615,3.247-4.052,5.891-4.368,7.9L1211.8,487.6c1.523-2.931,2.27-4.4,2.27-4.4" transform="translate(-573.678 -185.002)"/><path class="am" d="M1227.971,475.262c-3.1,2.414-4.626,3.621-4.626,3.621-1.983-7.012-2.931-11.494-2.356-12.414a13.531,13.531,0,0,1,5.661-4.569c.862,8.908,1.322,13.362,1.322,13.362" transform="translate(-580.107 -169.823)"/><path class="ah" d="M1245.7,495.473a28.272,28.272,0,0,1,12.759-3.994l-17.155-1.466c-3.534-.345-8.678,1.839-13.793,7.184-2.5,2.471-2.04,3.707,1.034,4.023a37.43,37.43,0,0,0,13.19-1.379c2.644-2.9,3.966-4.368,3.966-4.368" transform="translate(-583.723 -189.833)"/><path class="an" d="M1246.851,506.771a28.27,28.27,0,0,1,5.46-4.971c-12.3,2.126-19.914,3.448-19.914,3.448-1.753,1.983-1.753,2.9,1.494,2.874a54.063,54.063,0,0,0,12.96-1.351" transform="translate(-587.523 -198.257)"/><path class="ao" d="M1280.573,503.536c.948-.2,1.58-.4,1.753-.776a9.334,9.334,0,0,1,6.81-5.4c3.017-.575,8.822-1.552,8.3,2.557a.415.415,0,0,0,.316.46.425.425,0,0,0,.517-.23c2.356-3.3,2.155-4.885-.374-4.943q-12.543-.56-16.408,6.868a2.379,2.379,0,0,1-1.121.977.3.3,0,0,0-.172.2.312.312,0,0,0,.115.259c.058.057.086.057.259.029" transform="translate(-622.423 -193.528)"/><path class="ap" d="M1306.9,565.515c2.96,4.167,5.517,9.138,4.08,13.391,3.764-9.713,3.994-13.736,1.236-16.006-2.184,1.753-2.96,1.839-5.316,2.615" transform="translate(-641.451 -241.8)"/><path class="aq" d="M1297.371,621.1a5.081,5.081,0,0,1-2.471,3.822l4.2-.431c2.529-.431,3.391-2.443,2.644-5.086a6.537,6.537,0,0,1-4.368,1.7" transform="translate(-632.898 -282.064)"/><path class="ar" d="M1299.863,517.582c1.322-.259,1.983-.4,1.983-.4.948-4.54-.144-7.5-3.3-8.879l-2.241,3.017a6.041,6.041,0,0,1,3.563,6.264" transform="translate(-633.897 -202.89)"/><path class="as" d="M1275,590.573a.26.26,0,0,1,.287.086.223.223,0,0,1-.057.287,8.253,8.253,0,0,1-12.931-3.161.276.276,0,0,1,.172-.259.26.26,0,0,1,.287.086,8.519,8.519,0,0,0,5.489,4.138,8.375,8.375,0,0,0,6.753-1.178m3.937-8.218c.374-.546.575-.345.46.575a8.61,8.61,0,0,1-16.782.919c-.057-.287.172-.488.374-.661a.977.977,0,0,1,.747-.172C1271.668,585.831,1276.754,585.6,1278.938,582.354Z" transform="translate(-609.667 -255.45)"/><path class="at" d="M1281.251,589.325c.287-.546.6-1.149.977-1.81q-4.569,3.793-14.828-.115c.345,1.351.517,2.04.517,2.04,6.035,1.925,10.46,1.9,13.333-.115" transform="translate(-613.301 -259.26)"/><path class="aj" d="M1301.11,515.131c.632,1.782,1.954.546,1.523-1.983-.862-5.977-8.3-.575-8.333,10.029a.317.317,0,0,0,.632,0c1.925-7.328,5.431-10.316,6.178-8.046" transform="translate(-632.471 -204.577)"/><path class="aj" d="M1245.167,544.618c.057.172.287.172.431.115a.348.348,0,0,0,.23-.374c-.259-3.649,3.276-4.655,10.8-4.885a1.645,1.645,0,0,0,1.379-.92,1.624,1.624,0,0,0-1.7-2.3q-13.621,1.552-11.149,8.362" transform="translate(-597.188 -222.8)"/><path class="au" d="M1286,545.975a.853.853,0,0,1,.632-.948.823.823,0,0,1,1.006.546s.977,1.9,2.96,5.661c3.966-.718,4.885.575,2.155,4.253a2.865,2.865,0,0,1-3.764.747.987.987,0,0,0-.46-1.034.972.972,0,0,0-1.121.144,1.682,1.682,0,0,1-2.04-.086,1.69,1.69,0,0,1,1.293-2.988c-.431-4.167-.661-6.293-.661-6.293" transform="translate(-625.664 -229.042)"/><path class="av" d="M1323.383,562.267a.857.857,0,1,1-.719.977.844.844,0,0,1,.719-.977" transform="translate(-652.675 -241.339)"/><path class="aw" d="M1299.152,561.1a2,2,0,0,1,1.552.4,2.2,2.2,0,0,1,.8,1.408c2.1-2.988,1.379-4.138-2.127-3.506-1.178-2.328-1.782-3.506-1.782-3.506,1.034,3.477,1.552,5.2,1.552,5.2" transform="translate(-634.823 -236.811)"/><path class="ax" d="M1311.924,569.98a.654.654,0,1,1-.546.747.654.654,0,0,1,.546-.747" transform="translate(-644.635 -246.84)"/><path class="ay" d="M1252.546,466.693c1.983.575,2.989.833,2.989.833-2.213-4.109-3.707-6.322-4.511-6.638a13.193,13.193,0,0,0-6.523.086c.316,1.667.46,2.5.46,2.5a11.054,11.054,0,0,1,7.586,3.218" transform="translate(-596.981 -168.84)"/><path class="az" d="M1220.614,580.368c.862-.144,1.724.92,1.954,2.356s-.287,2.7-1.15,2.845-1.724-.92-1.954-2.356.288-2.73,1.15-2.845" transform="translate(-579.101 -254.239)"/><path class="af" d="M1207.848,567.6c1.638,2.874,2.96,5,1.264,6.293-.517.4-1.667-.086-3.218-1.293a3.994,3.994,0,0,1-1.465-3.793c.23-2.615,2.241-3.247,3.42-1.207" transform="translate(-568.404 -244.287)"/><path class="ba" d="M1212.652,571.427c1.006,1.782,1.839,3.075.776,3.879-.316.259-1.034-.057-1.983-.8a2.4,2.4,0,0,1-.891-2.328c.144-1.638,1.379-2.011,2.1-.747" transform="translate(-572.777 -247.339)"/><path class="aa" d="M1251.6,725.232c11.092-2.184,30.259-7.816,30.259-7.816s-2.155-10.23-7.328-17.586c-3.161-4.511-8.822-8.822-10.23-13.793a196.063,196.063,0,0,1-5.115-23.362s-5.575-3.534-16.7-10.575c-3.736,2.96-7.385,6.092-10.891,9.339.891,1.437,1.322,2.155,1.322,2.155,4.2,5.6,6.293,8.419,6.293,8.419,6.351,22.529,12.385,53.218,12.385,53.218" transform="translate(-587.788 -305.368)"/><path class="aa" d="M1337.014,663.233c7.586-.977,11.351-1.466,11.351-1.466s-3.132-15.632-9.4-46.868c0,0-3.132.46-9.368,1.351,1.351,10.345,2.155,16.408,2.385,18.132a3.547,3.547,0,0,1,.057.517c18.966,17.5,7.011,28.161,4.971,28.333" transform="translate(-657.628 -278.857)"/><path class="bb" d="M1287.74,712.8c-8.017,2.672-12.04,4.023-12.04,4.023,1.868,5.517,2.787,8.3,2.787,8.3a88.466,88.466,0,0,0,12.012-4.138l-2.759-8.19" transform="translate(-619.216 -348.625)"/><path class="bc" d="M1278,717.993c7.328-2.529,10.977-3.793,10.977-3.793s.259.747.8,2.27c0,0-.719.948-2.155,2.816,0,0-1.58.69-4.713,2.069l-3.793.172L1278,717.993" transform="translate(-620.855 -349.623)"/><path class="bd" d="M1276.264,708.638c3.736-1.121,5.6-1.667,5.6-1.667s.92-.948,2.73-2.874c0,0-.431-1.523-1.264-4.6T1270,704.155c.891,2.816,1.322,4.224,1.322,4.224,3.276.172,4.942.259,4.942.259" transform="translate(-615.154 -339.147)"/><path class="be" d="M1296.947,719.1a.747.747,0,1,1-.747.747.761.761,0,0,1,.747-.747" transform="translate(-633.825 -353.115)"/><path class="bb" d="M1305.4,777.2c-8.19,2.1-12.3,3.132-12.3,3.132,1.466,5.661,2.184,8.477,2.184,8.477a82.168,82.168,0,0,0,12.27-3.276c-1.437-5.546-2.155-8.333-2.155-8.333" transform="translate(-631.616 -394.519)"/><path class="bc" d="M1295.3,781.488c7.5-1.983,11.236-2.988,11.236-2.988s.2.776.632,2.328c0,0-.776.891-2.356,2.644,0,0-1.609.575-4.856,1.724l-3.793-.086c-.575-2.443-.862-3.621-.862-3.621" transform="translate(-633.184 -395.446)"/><path class="bd" d="M1294.119,772.392c3.793-.833,5.718-1.264,5.718-1.264l2.931-2.672-.948-4.655s-4.54,1.236-13.621,3.678c.69,2.874,1.006,4.31,1.006,4.31l4.914.6" transform="translate(-628.124 -384.97)"/><path class="be" d="M1314.771,782.1a.734.734,0,1,1-.776.69.688.688,0,0,1,.776-.69" transform="translate(-646.506 -398.007)"/><path class="bf" d="M1396.852,644.857q21.466-16.595,21.466-16.609S1403.6,624.6,1374.151,617.3t-36.351,9.77q59.052,17.8,59.052,17.787" transform="translate(-663.471 -280.568)"/><path class="bg" d="M1506.107,667.168q-7.414,40.517,0,54.569s9.77-3.966,29.339-11.925t.2-54.512q0,.043-29.54,11.868" transform="translate(-780.772 -307.648)"/><path class="bh" d="M1446.531,643.582c.747-.287,1.839.862,2.385.632a3.674,3.674,0,0,0,2.069-2.414s-14.828-4.167-44.454-12.5l-5.431,1.466q45.431,12.8,45.431,12.816" transform="translate(-708.581 -289.12)"/><path class="bi" d="M1559.617,683.217l4.138-1.81s-.057-2.9-.2-8.707c-2.989,1.207-4.454,1.782-4.454,1.782.345,5.833.517,8.736.517,8.736" transform="translate(-821.179 -320.048)"/><path class="bj" d="M1337.8,702.823q50.991,16.078,50.977,16.063-.086-25.086,0-54.569s-16.983-4.339-50.977-13.017v51.523" transform="translate(-663.471 -304.798)"/><path class="bk" d="M1344.4,708.9c6.81,2.3,10.23,3.477,10.23,3.477s6.351-14.253,19.052-42.787t-29.109-7.787q-.172,47.069-.173,47.1" transform="translate(-668.175 -312.281)"/><path class="bl" d="M1541.333,713.182c5.46-9.54,8.19-14.282,8.19-14.282v40.661c-16.034,6.581-24.023,9.885-24.023,9.885V728.009a15.849,15.849,0,0,0,15.833-14.828" transform="translate(-797.234 -338.719)"/><path class="bf" d="M1394.929,478.633c12.126-9.368,18.189-14.08,18.189-14.08s-12.471-3.075-37.414-9.253t-30.8,8.276q50.043,15.086,50.029,15.057" transform="translate(-668.531 -165.12)"/><path class="bg" d="M1487.5,497.629q-6.293,34.31,0,46.207s8.276-3.362,24.856-10.086t.173-46.149q-.043,0-25.029,10.029" transform="translate(-767.909 -188.138)"/><path class="bh" d="M1436.977,477.6c.632-.259,1.552.718,2.011.546a3.154,3.154,0,0,0,1.753-2.04s-12.557-3.534-37.644-10.6c-3.046.833-4.6,1.236-4.6,1.236q38.491,10.862,38.477,10.862" transform="translate(-706.729 -172.388)"/><path class="bi" d="M1532.76,511.208c2.328-1.006,3.506-1.523,3.506-1.523s-.058-2.471-.172-7.385c-2.529,1.006-3.793,1.523-3.793,1.523.316,4.914.46,7.385.46,7.385" transform="translate(-802.08 -198.614)"/><path class="bj" d="M1345,527.892q43.19,13.621,43.161,13.621-.043-21.25,0-46.207s-14.4-3.678-43.161-11.006v43.592" transform="translate(-668.602 -185.786)"/><path class="bk" d="M1350.5,532.814c5.776,1.954,8.649,2.931,8.649,2.931s5.374-12.069,16.121-36.236t-24.655-6.609q-.086,39.914-.115,39.914" transform="translate(-672.522 -191.915)"/><path class="bl" d="M1517.319,536.6q6.94-12.112,6.925-12.1v34.425l-20.345,8.362V549.126a13.445,13.445,0,0,0,13.419-12.529" transform="translate(-781.841 -214.434)"/><path class="bf" d="M1431.186,358.629q13.664-10.56,13.65-10.575s-9.368-2.328-28.1-6.954t-23.132,6.207q37.586,11.293,37.586,11.322" transform="translate(-703.237 -83.736)"/><path class="bg" d="M1500.674,372.757q-4.7,25.776,0,34.713s6.236-2.529,18.678-7.586t.115-34.684c0,.029-6.264,2.529-18.793,7.557" transform="translate(-777.868 -100.91)"/><path class="bh" d="M1462.779,357.709c.489-.2,1.178.546,1.523.4a2.377,2.377,0,0,0,1.322-1.552s-9.425-2.644-28.276-7.96c-2.3.632-3.448.919-3.448.919l28.879,8.19" transform="translate(-731.956 -89.08)"/><path class="bi" d="M1534.816,383c1.753-.776,2.643-1.149,2.643-1.149s-.029-1.839-.115-5.546c-1.9.747-2.845,1.149-2.845,1.149.2,3.707.316,5.546.316,5.546" transform="translate(-803.648 -108.821)"/><path class="bj" d="M1393.6,395.459q32.457,10.215,32.442,10.23-.043-15.948,0-34.713s-10.8-2.759-32.442-8.276v32.759" transform="translate(-703.237 -99.129)"/><path class="bk" d="M1397.8,399.271c4.339,1.466,6.494,2.213,6.494,2.213s4.052-9.08,12.126-27.213t-18.506-4.971q-.129,29.957-.115,29.971" transform="translate(-706.23 -103.832)"/><path class="bl" d="M1523.086,402.08c3.477-6.063,5.2-9.08,5.2-9.08v25.862q-15.3,6.293-15.287,6.293V411.506a10.092,10.092,0,0,0,10.086-9.425" transform="translate(-788.326 -120.722)"/><path class="ac" d="M1258.244,668.9c2.845-1.178,4.282-1.753,4.282-1.753s-4.569-2.96-13.678-8.851c-5.489,4.856-8.247,7.3-8.247,7.3,1.954,1.782,2.9,2.672,2.9,2.672a15.76,15.76,0,0,1,14.741.632" transform="translate(-594.202 -309.786)"/><path class="bm" d="M1288.2,705.772c4.282,1.925,6.437,2.9,6.437,2.9s.718-.776,2.155-2.3c0,0-.316-1.092-.977-3.276,0,0-2.529.891-7.615,2.672" transform="translate(-628.124 -341.713)"/><path class="bm" d="M1306.5,769.255c4.167,2.213,6.236,3.333,6.236,3.333s.776-.718,2.3-2.155c0,0-.258-1.121-.776-3.333l-7.759,2.155" transform="translate(-641.165 -387.322)"/><path class="w" d="M1267.325,792.761a1.325,1.325,0,0,1,.977,2.442s-1.293.632-3.851,1.868a2.164,2.164,0,0,0,.115,2.471,2.116,2.116,0,0,0,2.356.719s2.356-.575,7.1-1.7a2.792,2.792,0,0,1,2.787,1.437,2.742,2.742,0,0,1-.345,3.1l-7.845,4.4c-1.868.69-4.8-.862-8.851-4.626,0,0-15.086-2.126-41.954-4.4-6.925-.92-7.96-8.793-7.7-13.736.373-5.086.546-7.644.546-7.644q17.026,3.577,17.012,3.592c-.316,2.586-.489,3.879-.489,3.879a2.053,2.053,0,0,0,1.322,2.3q32.371,7.414,32.356,7.414c4.31-1.006,6.466-1.523,6.466-1.523" transform="translate(-572.451 -394.448)"/><path class="bn" d="M1215.292,781.3c2.27.718,3.419,1.092,3.419,1.092a32.3,32.3,0,0,0-.632,6.466c-.2,3.965.833,7.615,4.6,8.707a191.781,191.781,0,0,0,20.46,3.276s3.075-.086,11.667,3.132t-33.132-3.649c-4.483-.632-7.213-4.77-6.782-12.1-.029,0,.115-2.328.4-6.925" transform="translate(-575.848 -397.441)"/><path class="af" d="M1274.954,802.89a13.6,13.6,0,0,1,5.977-.575s-10.517-2.241-31.523-6.724A2.909,2.909,0,0,1,1247.08,792c.345-2.615.546-3.908.546-3.908-4.684-.6-7.011-.891-7.011-.891-.086,3.65-.115,5.46-.115,5.46.057,4.368,2.644,6.465,7.615,6.954q26.853,3.276,26.839,3.276" transform="translate(-594.131 -401.646)"/><path class="bo" d="M1369.381,828.991l.2.029a1.6,1.6,0,0,1,1.437,1.724l-.776,8.391a1.6,1.6,0,0,1-1.724,1.437l-.2-.029a1.6,1.6,0,0,1-1.437-1.724l.776-8.391a1.621,1.621,0,0,1,1.724-1.437" transform="translate(-684.19 -431.425)"/><rect class="bp" width="3.851" height="22.471" transform="translate(635.107 384.45) rotate(-78.311)"/><path class="w" d="M1560.325,558.1h0a5.645,5.645,0,0,1,6.264,4.914l.661,5.46a5.63,5.63,0,0,1-11.178,1.351l-.661-5.46a5.666,5.666,0,0,1,4.914-6.264" transform="translate(-818.525 -238.349)"/><path class="bq" d="M1578.526,568.28h0a1.911,1.911,0,0,1,2.356,1.81l.489,6.81a2.693,2.693,0,0,1-2.04,2.73h0a1.911,1.911,0,0,1-2.356-1.81l-.488-6.81a2.692,2.692,0,0,1,2.04-2.73" transform="translate(-833.565 -245.6)"/><path class="aa" d="M1272.3,774.9c3.161,1.81,3.621,4.224,1.753,6.983-.029,0-.6-2.328-1.753-6.983" transform="translate(-616.793 -392.88)"/><path class="br" d="M1239.284,655.5c.919-.172,1.868-.374,2.787-.546s1.868-.374,2.787-.546a1.724,1.724,0,0,1,2.1,1.466c.718,6.466,1.437,12.9,2.184,19.368q1.078,9.655,2.184,19.368c.115,1.006-.259,1.9-.8,2.011-.489.086-.977.2-1.494.287-.489.086-.977.2-1.466.287-.546.115-1.178-.6-1.379-1.58-1.408-6.322-2.787-12.644-4.2-18.966s-2.787-12.644-4.2-18.965a1.825,1.825,0,0,1,1.494-2.184" transform="translate(-592.168 -306.989)"/><path class="bs" d="M1256,1229.2a2.9,2.9,0,1,1-2.9,2.9,2.931,2.931,0,0,1,2.9-2.9" transform="translate(-603.11 -716.634)"/><path class="bs" d="M1243.368,1207a1.868,1.868,0,1,1-1.868,1.868,1.864,1.864,0,0,1,1.868-1.868" transform="translate(-594.844 -700.814)"/><path class="bs" d="M1262.409,1184.5a1.609,1.609,0,1,1-1.609,1.609,1.606,1.606,0,0,1,1.609-1.609" transform="translate(-608.598 -684.779)"/><path class="bs" d="M1199.251,1232.3a1.351,1.351,0,1,1-1.351,1.35,1.368,1.368,0,0,1,1.351-1.35" transform="translate(-563.772 -718.844)"/><path class="bs" d="M1166.433,1215.8a.833.833,0,1,1-.833.833.834.834,0,0,1,.833-.833" transform="translate(-540.754 -707.085)"/><path class="bs" d="M1192.668,1258.2a1.868,1.868,0,1,1-1.868,1.868,1.864,1.864,0,0,1,1.868-1.868" transform="translate(-558.713 -737.301)"/><path class="bs" d="M1148.833,1259.2a1.236,1.236,0,1,1-1.236,1.236,1.209,1.209,0,0,1,1.236-1.236" transform="translate(-527.924 -738.013)"/><path class="bs" d="M1074.051,1217.2a1.351,1.351,0,1,1-1.351,1.351,1.387,1.387,0,0,1,1.351-1.351" transform="translate(-474.549 -708.083)"/><path class="bs" d="M1374.868,1275a1.868,1.868,0,1,1-1.868,1.868,1.922,1.922,0,0,1,1.868-1.868" transform="translate(-688.556 -749.273)"/><path class="bs" d="M1044.666,1259.8a1.466,1.466,0,1,1-1.465,1.466,1.472,1.472,0,0,1,1.465-1.466" transform="translate(-453.526 -738.441)"/><path class="bs" d="M1019.106,1238.1a1.006,1.006,0,1,1-1.006,1.006,1.018,1.018,0,0,1,1.006-1.006" transform="translate(-435.639 -722.977)"/><path class="bs" d="M1012.947,1215.9a.747.747,0,1,1-.747.747.761.761,0,0,1,.747-.747" transform="translate(-431.434 -707.156)"/><path class="bt" d="M946.974,1213.6a.374.374,0,1,1-.374.374.38.38,0,0,1,.374-.374" transform="translate(-384.685 -705.517)"/><path class="bs" d="M1491.468,1220.3a1.868,1.868,0,1,1-1.868,1.868,1.922,1.922,0,0,1,1.868-1.868" transform="translate(-771.65 -710.292)"/><path class="bs" d="M1475.464,1218.5a1.264,1.264,0,1,1-1.264,1.264,1.257,1.257,0,0,1,1.264-1.264" transform="translate(-760.676 -709.009)"/><path class="bs" d="M1474.332,1195.1a.632.632,0,1,1-.632.632.638.638,0,0,1,.632-.632" transform="translate(-760.319 -692.333)"/><path class="bs" d="M1445.26,1199a.46.46,0,1,1-.46.46.454.454,0,0,1,.46-.46" transform="translate(-739.724 -695.113)"/><path class="bs" d="M1459.26,1184.5a.46.46,0,1,1-.46.46.454.454,0,0,1,.46-.46" transform="translate(-749.701 -684.779)"/><path class="bs" d="M1424.86,1217.7a.46.46,0,1,1-.46.46.454.454,0,0,1,.46-.46" transform="translate(-725.186 -708.439)"/><rect class="bu" width="184.454" height="119.512" transform="translate(428.237 245.612)"/><rect class="bv" width="68.19" height="45.603" transform="translate(429.817 320.094)"/><rect class="bw" width="47.73" height="45.603" transform="translate(429.817 320.094)"/><rect class="bx" width="40.489" height="14.282" transform="translate(433.438 349.405)"/><rect class="by" width="13.736" height="14.282" transform="translate(480.766 349.405)"/><rect class="bv" width="53.506" height="35.805" transform="translate(499.875 329.893)"/><rect class="bw" width="37.471" height="35.805" transform="translate(499.875 329.893)"/><rect class="bx" width="31.782" height="11.207" transform="translate(502.691 352.91)"/><rect class="by" width="10.776" height="11.207" transform="translate(539.875 352.91)"/><rect class="bv" width="53.506" height="51.667" transform="translate(555.737 314.031)"/><rect class="bw" width="37.471" height="51.667" transform="translate(555.737 314.031)"/><rect class="bx" width="31.782" height="16.178" transform="translate(558.582 347.221)"/><rect class="by" width="10.776" height="16.178" transform="translate(595.737 347.221)"/><rect class="bv" width="53.506" height="35.805" transform="translate(449.3 284.318)"/><rect class="bw" width="37.471" height="35.805" transform="translate(449.3 284.318)"/><rect class="bx" width="31.782" height="11.207" transform="translate(452.145 307.336)"/><rect class="by" width="10.776" height="11.207" transform="translate(489.3 307.336)"/><rect class="bv" width="43.075" height="28.822" transform="translate(505.564 301.071)"/><rect class="bw" width="30.172" height="28.822" transform="translate(505.564 301.071)"/><rect class="bx" width="25.575" height="9.023" transform="translate(507.863 319.577)"/><rect class="by" width="8.678" height="9.023" transform="translate(537.777 319.577)"/><rect class="bv" width="53.506" height="35.805" transform="translate(552.059 278.284)"/><rect class="bw" width="37.471" height="35.805" transform="translate(552.059 278.284)"/><rect class="bx" width="31.782" height="11.207" transform="translate(554.904 301.301)"/><rect class="by" width="10.776" height="11.207" transform="translate(592.059 301.301)"/><rect class="bv" width="34.512" height="23.103" transform="translate(445.737 261.301)"/><rect class="bw" width="24.167" height="23.103" transform="translate(445.737 261.301)"/><rect class="bx" width="20.517" height="7.241" transform="translate(447.576 276.129)"/><rect class="by" width="6.954" height="7.241" transform="translate(471.541 276.129)"/><rect class="bz" width="24.569" height="21.322" transform="matrix(0.981, -0.193, 0.193, 0.981, 589.121, 232.507)"/><rect class="ca" width="16.724" height="2.069" transform="matrix(0.981, -0.193, 0.193, 0.981, 593.898, 235.796)"/><rect class="ca" width="16.724" height="2.069" transform="matrix(0.981, -0.193, 0.193, 0.981, 594.7, 239.993)"/><rect class="bu" width="179.799" height="73.793" transform="translate(432.892 392.192)"/><rect class="bv" width="91.638" height="30.661" transform="translate(421.197 435.554)"/><rect class="bw" width="64.167" height="30.661" transform="translate(421.197 435.554)"/><rect class="bx" width="54.425" height="9.598" transform="translate(426.053 455.267)"/><rect class="by" width="18.448" height="9.598" transform="translate(489.674 455.267)"/><rect class="bv" width="91.638" height="30.661" transform="translate(517.375 435.554)"/><rect class="bw" width="64.167" height="30.661" transform="translate(517.375 435.554)"/><rect class="bx" width="54.425" height="9.598" transform="translate(522.26 455.267)"/><rect class="by" width="18.448" height="9.598" transform="translate(585.88 455.267)"/><rect class="bv" width="79.167" height="26.494" transform="translate(479.357 409.117)"/><rect class="bw" width="55.431" height="26.494" transform="translate(479.357 409.117)"/><rect class="bx" width="47.012" height="8.305" transform="translate(483.553 426.158)"/><rect class="by" width="15.92" height="8.305" transform="translate(538.524 426.158)"/><path class="e" d="M1694.9,315.138l-4.4-2.586c3.247,2.96,4.885,4.425,4.885,4.425.862-3.994,1.322-5.977,1.322-5.977l-1.81,4.138" transform="translate(-914.821 -62.285)"/><path class="e" d="M1809.4,290.138l-4.4-2.586c3.247,2.96,4.885,4.425,4.885,4.425.862-3.994,1.322-5.977,1.322-5.977l-1.81,4.138" transform="translate(-996.418 -44.469)"/><rect class="bz" width="21.322" height="24.569" transform="translate(409.459 387.515) rotate(-65.488)"/><rect class="ca" width="2.069" height="16.724" transform="translate(419.413 375.418) rotate(-65.488)"/><rect class="ca" width="2.069" height="16.724" transform="translate(417.635 379.326) rotate(-65.488)"/></g></svg>