<svg xmlns="http://www.w3.org/2000/svg" width="94.383" height="130.068" viewBox="0 0 94.383 130.068">
  <path id="Subtraction_1" data-name="Subtraction 1" d="M44.956,127a45.513,45.513,0,0,1-6.164-.422A44.8,44.8,0,0,1,.008,81.636,29.411,29.411,0,0,1,1.827,70.716c1.6-10.07,6.219-16.707,10.69-23.127C20.2,36.558,27.457,26.139,18.005,0h0l.012,0A23.631,23.631,0,0,1,21.98,1.616,38.934,38.934,0,0,1,31.1,8.088,49,49,0,0,1,41.179,21.855,73.463,73.463,0,0,1,48,45.355a11.843,11.843,0,0,0,3.225-.689A10.358,10.358,0,0,0,56.64,40.4a13.467,13.467,0,0,0,1.62-8.131c-.284-3.943-1.718-8.7-4.259-14.132A79.717,79.717,0,0,1,78.258,42.467a79.62,79.62,0,0,1,7.6,15.387A79.472,79.472,0,0,1,89.994,74.7a92.84,92.84,0,0,1-1.669,19.048,44.607,44.607,0,0,1-16.137,24.06A44.974,44.974,0,0,1,44.956,127ZM62.51,81.889c-.492.048-.742.3-.742.741v21.354a.716.716,0,0,0,.742.777h9.882a.586.586,0,0,0,.443-.208.851.851,0,0,0,.226-.424v-3.072a.621.621,0,0,0-.669-.632h-5.6V82.63a.664.664,0,0,0-.687-.741ZM49.718,101.943h4.7l.47,2.077a.834.834,0,0,0,.741.741h3.56a.917.917,0,0,0,.515-.244.656.656,0,0,0,.226-.5L55.193,82.666c-.12-.468-.369-.729-.741-.777h-4.7c-.372.024-.621.286-.741.777L44.226,104.02a.654.654,0,0,0,.226.5.917.917,0,0,0,.515.244h3.559a.834.834,0,0,0,.741-.741l.452-2.076ZM32.212,81.889a.917.917,0,0,0-.515.244.654.654,0,0,0-.226.5v21.354a.709.709,0,0,0,.226.515.873.873,0,0,0,.515.262h9.882a.586.586,0,0,0,.443-.208.851.851,0,0,0,.226-.424v-3.072a.621.621,0,0,0-.669-.632h-5.6V96.143h3.938c.383,0,.6-.213.651-.633V92.44a.874.874,0,0,0-.217-.425.559.559,0,0,0-.434-.208H36.493V86.188h5.6A.612.612,0,0,0,42.537,86a.76.76,0,0,0,.226-.407V82.521a.621.621,0,0,0-.669-.632H32.212Zm-16.386,0c-.491.047-.741.3-.741.741v21.354a.715.715,0,0,0,.741.777h6.143a6.984,6.984,0,0,0,4.959-1.842,6.191,6.191,0,0,0,1.96-4.7V88.484a6.281,6.281,0,0,0-1.96-4.725,6.926,6.926,0,0,0-4.959-1.869Zm29.31-31.5a8.859,8.859,0,0,0-6.346,2.375,7.975,7.975,0,0,0-2.49,6V71.729a7.947,7.947,0,0,0,2.49,5.978,8.859,8.859,0,0,0,6.346,2.375,8.82,8.82,0,0,0,6.3-2.363,7.936,7.936,0,0,0,2.49-5.989V58.763a7.972,7.972,0,0,0-2.49-6A8.8,8.8,0,0,0,45.136,50.387Zm11.015.321a.788.788,0,0,0-.849.8v3.9a1.163,1.163,0,0,0,.3.517.738.738,0,0,0,.551.24h3.856V78.774a.909.909,0,0,0,.94.986h4.568a1.01,1.01,0,0,0,.631-.332.943.943,0,0,0,.264-.654V56.169h3.856a.777.777,0,0,0,.563-.24.963.963,0,0,0,.287-.517v-3.9a.789.789,0,0,0-.85-.8ZM21.865,69h4.568v9.777a.909.909,0,0,0,.94.986h4.476a.909.909,0,0,0,.94-.986V51.648c0-.563-.316-.88-.94-.94H27.373c-.624.061-.94.377-.94.94v11.8H21.865v-11.8c0-.563-.332-.88-.986-.94H16.426c-.624.061-.941.377-.941.94V78.774a.909.909,0,0,0,.941.986h4.452a1.177,1.177,0,0,0,.689-.332.89.89,0,0,0,.3-.654V69Zm.1,31.464H20.107V86.225h1.861a1.9,1.9,0,0,1,1.327.506,1.989,1.989,0,0,1,.552,1.535V98.438a1.962,1.962,0,0,1-.552,1.527A1.921,1.921,0,0,1,21.968,100.462Zm31.435-2.8H50.711l1.373-6.63L53.4,97.66ZM45.136,74.6a2.543,2.543,0,0,1-1.722-.643A2.466,2.466,0,0,1,42.68,72V58.464a2.428,2.428,0,0,1,.734-1.939,2.568,2.568,0,0,1,1.722-.632,2.522,2.522,0,0,1,1.709.632,2.447,2.447,0,0,1,.723,1.939V72A2.353,2.353,0,0,1,45.136,74.6Z" transform="matrix(0.999, -0.035, 0.035, 0.999, 0, 3.142)" fill="#ff3939"/>
</svg>
