<svg xmlns="http://www.w3.org/2000/svg" width="21.82" height="19.482" viewBox="0 0 21.82 19.482"><defs><style>.a{fill:#fbb03b;}</style></defs><path class="a" d="M21.82,71.014a.749.749,0,0,1-.231.548L15.354,77.8a.779.779,0,0,1-1.327-.548V74.131H11.3q-1.193,0-2.137.073a15.431,15.431,0,0,0-1.875.262,6.969,6.969,0,0,0-1.619.518,5.718,5.718,0,0,0-1.285.846,4.24,4.24,0,0,0-.974,1.23,6.617,6.617,0,0,0-.591,1.686,10.357,10.357,0,0,0-.213,2.2q0,.67.061,1.5a2.517,2.517,0,0,0,.03.286,2.486,2.486,0,0,1,.03.323.454.454,0,0,1-.1.3.355.355,0,0,1-.286.122A.416.416,0,0,1,2,83.275a1.373,1.373,0,0,1-.158-.268q-.073-.158-.164-.365t-.128-.292A14.621,14.621,0,0,1,0,76.858,11.086,11.086,0,0,1,.645,72.8Q2.618,67.9,11.3,67.9h2.728V64.779a.775.775,0,0,1,1.327-.548l6.234,6.234A.749.749,0,0,1,21.82,71.014Z" transform="translate(0 -64)"/></svg>