<svg xmlns="http://www.w3.org/2000/svg" width="34.693" height="33.263" viewBox="0 0 34.693 33.263"><defs><style>.a{fill:#fbb03b;}</style></defs><g transform="translate(-2.648 -3.034)"><g transform="translate(2.648 3.034)"><path class="a" d="M29,36.3a2.794,2.794,0,0,1-1.2-.271,1.541,1.541,0,0,1-.193-.095l-7.618-4.346-7.618,4.348a2.157,2.157,0,0,1-.2.1,2.826,2.826,0,0,1-2.821-.265,2.792,2.792,0,0,1-1.087-2.8l1.775-8.611-2.972-2.7-3.515-3.2a1.4,1.4,0,0,1-.145-.152,2.769,2.769,0,0,1,1.521-4.639,1.614,1.614,0,0,1,.189-.033l8.72-.966,3.61-7.995a1.283,1.283,0,0,1,.111-.2,2.777,2.777,0,0,1,4.856,0c.039.067.076.135.111.208l3.613,8,8.72.966a1.49,1.49,0,0,1,.193.032,2.778,2.778,0,0,1,1.517,4.649c-.045.048-.095.1-.145.145l-6.489,5.906,1.775,8.592a2.809,2.809,0,0,1-1.094,2.818A2.761,2.761,0,0,1,29,36.3ZM13.885,24.121c-.072.338-.864,4.166-1.567,7.572l6.758-3.853a1.853,1.853,0,0,1,1.836,0l6.758,3.849-1.575-7.613a1.851,1.851,0,0,1,.571-1.747l5.75-5.235-7.731-.855A1.856,1.856,0,0,1,23.2,15.156L19.994,8.068l-3.2,7.088a1.868,1.868,0,0,1-1.486,1.083l-7.731.855,5.75,5.235A1.846,1.846,0,0,1,13.885,24.121Z" transform="translate(-2.648 -3.034)"/></g></g></svg>