<svg xmlns="http://www.w3.org/2000/svg" width="34.693" height="33.247" viewBox="0 0 34.693 33.247"><defs><style>.a{fill:#fbb03b;fill-rule:evenodd;}</style></defs><path class="a" d="M49.3,41.034a1.4,1.4,0,0,0-1.345,1.026L44.54,52.6h-11.2a1.431,1.431,0,0,0-1.388,1.453,1.414,1.414,0,0,0,.6,1.157c.224.152,9.049,6.6,9.049,6.6s-3.389,10.408-3.455,10.574a1.573,1.573,0,0,0-.086.491,1.4,1.4,0,0,0,2.2,1.157L49.3,67.451s8.832,6.433,9.035,6.578a1.4,1.4,0,0,0,2.2-1.157,1.546,1.546,0,0,0-.087-.491c-.065-.166-3.454-10.574-3.454-10.574s8.824-6.447,9.049-6.6a1.441,1.441,0,0,0-.774-2.609h-11.2L50.64,42.06A1.4,1.4,0,0,0,49.3,41.034Z" transform="translate(-31.95 -41.034)"/></svg>